<svg width="32" height="32" viewBox="0 0 32 32" fill="none" xmlns="http://www.w3.org/2000/svg">
  <!-- Pink background with rounded corners -->
  <rect width="32" height="32" rx="6.4" fill="#ff006e"/>

  <!-- Orange decorative circles (static lava lamp effect) -->
  <circle cx="8" cy="8" r="10" fill="#fd9809" opacity="0.4"/>
  <circle cx="26" cy="26" r="12" fill="#fd9809" opacity="0.3"/>
  <circle cx="16" cy="16" r="8" fill="#fd9809" opacity="0.25"/>

  <!-- Map Pin Icon (Font Awesome Map Marker Alt) -->
  <g transform="translate(9, 5)">
    <path d="M7 0C3.13 0 0 3.13 0 7c0 5.25 7 13 7 13s7-7.75 7-13c0-3.87-3.13-7-7-7zm0 9.5c-1.38 0-2.5-1.12-2.5-2.5S5.62 4.5 7 4.5 9.5 5.62 9.5 7 8.38 9.5 7 9.5z" fill="white" fill-opacity="0.95"/>
  </g>

  <!-- Subtle drop shadow effect for the pin -->
  <defs>
    <filter id="shadow" x="-50%" y="-50%" width="200%" height="200%">
      <feDropShadow dx="0" dy="1" stdDeviation="1" flood-opacity="0.3"/>
    </filter>
  </defs>
  <g filter="url(#shadow)">
    <path transform="translate(9, 5)" d="M7 0C3.13 0 0 3.13 0 7c0 5.25 7 13 7 13s7-7.75 7-13c0-3.87-3.13-7-7-7zm0 9.5c-1.38 0-2.5-1.12-2.5-2.5S5.62 4.5 7 4.5 9.5 5.62 9.5 7 8.38 9.5 7 9.5z" fill="white" fill-opacity="0"/>
  </g>
</svg>
